<svg width="96" height="86" viewBox="0 0 96 86" fill="none" xmlns="http://www.w3.org/2000/svg">
<path d="M50.7314 85.1259C73.9969 85.1259 92.8573 66.2654 92.8573 42.9999C92.8573 19.7344 73.9969 0.874023 50.7314 0.874023C27.4659 0.874023 8.60547 19.7344 8.60547 42.9999C8.60547 66.2654 27.4659 85.1259 50.7314 85.1259Z" fill="url(#paint0_linear)"/>
<path d="M50.7315 83.9659C73.3563 83.9659 91.6973 65.6249 91.6973 43C91.6973 20.3752 73.3563 2.03418 50.7315 2.03418C28.1067 2.03418 9.76562 20.3752 9.76562 43C9.76562 65.6249 28.1067 83.9659 50.7315 83.9659Z" fill="url(#paint1_linear)"/>
<path d="M65.1297 4.63745C66.8116 9.11663 67.7339 13.9676 67.7339 19.0344C67.7339 41.6598 49.3925 60.0012 26.7671 60.0012C21.7003 60.0012 16.8493 59.0789 12.3701 57.397C18.1982 72.919 33.1741 83.9667 50.7325 83.9667C73.3579 83.9667 91.6993 65.6253 91.6993 42.9999C91.6992 25.4417 80.6519 10.4657 65.1297 4.63745Z" fill="url(#paint2_radial)"/>
<path d="M34.8716 20.0303C35.4594 18.1225 36.1239 16.315 36.8625 14.629C38.3349 11.2672 40.0423 8.53286 41.9191 6.47974C35.1637 8.10404 29.1195 11.5531 24.3369 16.2777C27.4513 17.8499 31.0087 19.1123 34.8716 20.0303Z" fill="url(#paint3_radial)"/>
<path d="M77.1266 16.2776C75.4307 17.1337 73.6035 17.8998 71.6659 18.5636C70.0478 19.1227 68.3516 19.6124 66.5921 20.0302C66.0043 18.1231 65.3406 16.3145 64.6011 14.6289C63.1283 11.2676 61.422 8.53308 59.5459 6.48071C59.5622 6.48484 59.5787 6.48896 59.595 6.4929C66.3298 8.12115 72.3561 11.5644 77.1266 16.2776Z" fill="url(#paint4_radial)"/>
<path d="M65.8481 44.9509H35.6172C35.7451 50.8079 36.4484 56.4098 37.6636 61.4132C41.8197 60.6752 46.2216 60.2899 50.7325 60.2899C55.2435 60.2899 59.6453 60.6752 63.8014 61.4132C65.017 56.4096 65.7203 50.8079 65.8481 44.9509Z" fill="url(#paint5_radial)"/>
<path d="M63.8014 24.5869C59.6453 25.3249 55.2433 25.7102 50.7325 25.7102C46.2214 25.7102 41.8197 25.3249 37.6636 24.5869C36.4484 29.5905 35.7449 35.1923 35.6172 41.0492H65.8479C65.7199 35.1923 65.0166 29.5905 63.8014 24.5869Z" fill="url(#paint6_radial)"/>
<path d="M38.7139 65.1865C39.2291 66.8145 39.8034 68.3601 40.4366 69.8059C43.2922 76.3258 47.045 80.0653 50.7326 80.0653C54.4201 80.0653 58.1729 76.326 61.0286 69.8059C61.6617 68.3601 62.2362 66.8145 62.7513 65.1865C58.9327 64.5321 54.8864 64.1914 50.7326 64.1914C46.5787 64.1914 42.5323 64.5321 38.7139 65.1865Z" fill="url(#paint7_radial)"/>
<path d="M62.7513 20.8137C62.2361 19.1856 61.6617 17.64 61.0286 16.1942C58.1729 9.67431 54.4201 5.93481 50.7326 5.93481C47.045 5.93481 43.2922 9.67412 40.4366 16.1942C39.8034 17.64 39.2289 19.1856 38.7139 20.8137C42.5325 21.468 46.5787 21.8087 50.7326 21.8087C54.8864 21.8087 58.9327 21.468 62.7513 20.8137Z" fill="url(#paint8_radial)"/>
<path d="M33.8435 23.7929C33.2722 26.1771 32.805 28.6842 32.4588 31.2816C32.0368 34.4258 31.7848 37.7011 31.7131 41.0502H13.2188C13.6264 33.1026 16.5021 25.8106 21.0967 19.9195C21.2687 19.6983 21.4449 19.4791 21.6212 19.262C21.8302 19.3747 22.035 19.4873 22.25 19.598C25.6727 21.3635 29.5953 22.7727 33.8435 23.7929Z" fill="url(#paint9_radial)"/>
<path d="M66.5925 65.9697C66.0047 67.8775 65.3402 69.685 64.6016 71.371C63.1292 74.7329 61.4218 77.4672 59.5449 79.5203C66.3003 77.896 72.3446 74.447 77.1271 69.7223C74.013 68.1502 70.4555 66.8877 66.5925 65.9697Z" fill="url(#paint10_radial)"/>
<path d="M79.2155 19.5976C75.7917 21.364 71.8702 22.7734 67.6201 23.7925C68.8895 29.0684 69.6217 34.938 69.7503 41.0492H88.2455C87.8236 32.8043 84.742 25.2627 79.8436 19.2627C79.6357 19.3748 79.4288 19.4875 79.2155 19.5976Z" fill="url(#paint11_radial)"/>
<path d="M69.7503 44.9509C69.6219 51.0619 68.8897 56.932 67.6201 62.2076C71.8702 63.2269 75.7917 64.6363 79.2155 66.4026C79.4287 66.5126 79.6355 66.6253 79.8436 66.7376C84.742 60.7375 87.8236 53.1959 88.2455 44.9511H69.7503V44.9509Z" fill="url(#paint12_radial)"/>
<path d="M33.8437 62.2072C32.0268 62.6434 30.2713 63.1494 28.5877 63.725C26.3325 64.4972 24.2105 65.3902 22.25 66.4022C22.035 66.5128 21.8302 66.6253 21.6212 66.7382C17.4836 61.6706 14.6426 55.5052 13.6059 48.7436C13.4134 47.4983 13.2844 46.2324 13.2188 44.95H31.7132C31.8425 51.0623 32.5757 56.9329 33.8437 62.2072Z" fill="url(#paint13_radial)"/>
<path d="M36.8618 71.371C36.1235 69.685 35.4588 67.8777 34.871 65.9697C31.0081 66.8877 27.4507 68.15 24.3359 69.7225C29.1187 74.4471 35.1627 77.8958 41.9182 79.5205C40.0417 77.4674 38.3343 74.7329 36.8618 71.371Z" fill="url(#paint14_radial)"/>
<path d="M33.8435 23.7929C33.2722 26.1771 32.8049 28.6842 32.4588 31.2816L21.0967 19.9195C21.2686 19.6983 21.4449 19.4791 21.6211 19.262C21.8302 19.3747 22.0349 19.4873 22.25 19.598C25.6726 21.3635 29.5953 22.7727 33.8435 23.7929Z" fill="url(#paint15_linear)"/>
<path d="M33.8435 62.2072C32.0266 62.6433 30.2711 63.1494 28.5875 63.725L13.6059 48.7434C13.4134 47.498 13.2844 46.2322 13.2188 44.9497H31.7131C31.8423 51.0622 32.5755 56.9328 33.8435 62.2072Z" fill="url(#paint16_linear)"/>
<path d="M71.6659 18.5636C70.0478 19.1227 68.3516 19.6124 66.5921 20.0302C66.0043 18.1231 65.3406 16.3145 64.6011 14.6289C63.1283 11.2676 61.422 8.53308 59.5459 6.48071C59.5622 6.48484 59.5787 6.48896 59.595 6.4929L71.6659 18.5636Z" fill="url(#paint17_linear)"/>
<path d="M91.699 42.9999C91.699 36.7355 90.292 30.8006 87.778 25.4917C86.1076 27.0099 83.7365 28.8988 80.4044 31.1774C77.3204 33.2872 75.0718 35.5614 71.2063 37.7739C70.1139 38.399 69.741 39.7959 70.37 40.886C70.523 41.1511 70.7216 41.3727 70.9496 41.5488L88.4392 59.0384C90.5373 54.1126 91.699 48.6922 91.699 42.9999Z" fill="url(#paint18_linear)"/>
<path d="M74.3516 44.9514H88.2438C88.0388 48.9772 87.1987 52.8322 85.8232 56.4232L74.3516 44.9514Z" fill="url(#paint19_linear)"/>
<path d="M88.2442 41.0488H70.4743C70.4357 40.9964 70.4015 40.9439 70.3695 40.8871C69.7412 39.7964 70.1145 38.3983 71.2052 37.7743C75.0716 35.561 77.3214 33.2885 80.4043 31.1776C82.2373 29.9231 83.7789 28.7891 85.0745 27.7644C86.8961 31.8586 88.0027 36.3397 88.2442 41.0488Z" fill="url(#paint20_linear)"/>
<path d="M95.6193 19.1687C94.2074 16.1129 89.8494 16.2199 88.4171 16.254C87.0395 16.2882 85.4523 16.4498 83.6673 16.7391C84.7376 18.0758 85.7257 19.4783 86.6251 20.9402C88.1917 20.7786 89.3324 20.7741 90.1273 20.8468C90.824 20.9082 91.1793 21.7052 90.7762 22.2769C90.3459 22.885 89.6718 23.6796 88.6633 24.661C86.9829 26.3003 84.3733 28.4636 80.4045 31.1777C77.3205 33.2874 75.0718 35.5616 71.2063 37.7741C70.1139 38.3993 69.741 39.7961 70.37 40.8862C70.9983 41.9752 72.3888 42.3463 73.4799 41.7216C77.9895 39.1403 80.7748 36.5004 84.2505 34.0513C86.7279 32.3072 88.8273 30.6677 90.5283 29.1512C91.5553 28.2358 92.4388 27.366 93.1719 26.544C93.9461 25.6789 96.0001 23.379 96.0001 20.9128C95.9997 20.3344 95.8882 19.7492 95.6193 19.1687Z" fill="url(#paint21_linear)"/>
<path d="M87.4783 61.1229C80.7907 74.6577 66.8483 83.966 50.7316 83.966C36.1563 83.966 23.3594 76.3539 16.1024 64.889C15.2508 63.5503 14.4789 62.1613 13.7891 60.722C15.0665 60.4648 16.4986 60.1368 18.1017 59.7202C18.2954 59.6702 18.4889 59.6201 18.6869 59.5676C18.917 59.5083 19.1491 59.4446 19.3859 59.3808C28.3529 56.9377 39.5446 52.7047 50.9001 47.456C52.567 46.6841 54.2155 45.903 55.8368 45.1131L53.4732 40.4132C52.9928 39.4635 53.808 38.3753 54.8554 38.5665L66.9692 40.7843C67.0078 40.791 67.0489 40.8002 67.0855 40.8116C67.1241 40.8208 67.1606 40.8345 67.197 40.848C67.2311 40.8594 67.263 40.8729 67.2951 40.8891C67.3223 40.9028 67.3496 40.9164 67.377 40.9322C67.3975 40.9436 67.4181 40.9571 67.4383 40.971C67.4612 40.9847 67.4839 41.0006 67.5043 41.0166C67.5476 41.0462 67.5885 41.0803 67.6273 41.1214C67.6455 41.1373 67.6637 41.1578 67.6819 41.1759C67.7411 41.2397 67.7935 41.3079 67.8388 41.3831C67.8776 41.4469 67.9095 41.5129 67.9369 41.5813L87.4783 61.1229Z" fill="url(#paint22_linear)"/>
<path d="M50.732 60.2897C55.2429 60.2897 59.6444 60.6745 63.8 61.4123C65.0157 56.4096 65.7196 50.808 65.8469 44.9517H55.7551L55.837 45.1133C54.2159 45.9034 52.5672 46.6845 50.9004 47.4563C45.9296 49.7539 40.9908 51.8554 36.2568 53.6998C36.5985 56.3869 37.0698 58.9712 37.664 61.4123C41.8198 60.6745 46.2211 60.2897 50.732 60.2897Z" fill="url(#paint23_linear)"/>
<path d="M62.7502 65.1874C58.9316 64.5316 54.8853 64.1924 50.732 64.1924C46.5787 64.1924 42.5325 64.5316 38.7139 65.1874C39.2286 66.8133 39.8023 68.3594 40.4353 69.8052C43.2907 76.3266 47.0454 80.0655 50.732 80.0655C54.4186 80.0655 58.1733 76.3268 61.0288 69.8052C61.6618 68.3596 62.2355 66.8133 62.7502 65.1874Z" fill="url(#paint24_linear)"/>
<path d="M64.6012 71.3718C63.1302 74.7328 61.4223 77.4674 59.5439 79.5215C66.2999 77.8957 72.3455 74.4483 77.1271 69.7233C74.0122 68.15 70.4555 66.8883 66.5913 65.9707C66.0039 67.8766 65.339 69.6845 64.6012 71.3718Z" fill="url(#paint25_linear)"/>
<path d="M71.3075 44.9514H69.7502C69.6225 51.063 68.8893 56.9308 67.6211 62.2068C71.87 63.227 75.791 64.6364 79.2159 66.4034C79.4278 66.5128 79.6349 66.6243 79.8442 66.7383C81.8684 64.2586 83.5809 61.5148 84.9241 58.5684L71.3075 44.9514Z" fill="url(#paint26_linear)"/>
<path d="M34.8727 65.9707C31.0085 66.8883 27.4518 68.1498 24.3369 69.7233C29.1187 74.4481 35.1641 77.8955 41.9201 79.5215C40.0415 77.4676 38.3338 74.7329 36.8628 71.3718C36.1248 69.6845 35.4601 67.8766 34.8727 65.9707Z" fill="url(#paint27_linear)"/>
<path d="M33.8435 62.2068C33.6453 61.3802 33.4588 60.54 33.2902 59.6863C32.9874 58.2017 32.73 56.6782 32.5138 55.1184C27.8162 56.849 23.3807 58.2926 19.3867 59.381C18.624 59.5882 17.8976 59.7772 17.2031 59.948C17.9181 61.3644 18.7219 62.7307 19.6078 64.0351C20.2386 64.9665 20.9102 65.8681 21.6206 66.738C21.8301 66.6264 22.035 66.5126 22.2514 66.4031C24.2096 65.3898 26.3317 64.4973 28.5883 63.7252C30.2707 63.1496 32.0263 62.6439 33.8435 62.2068Z" fill="url(#paint28_linear)"/>
<path d="M10.3468 55.0072C11.1231 57.6215 12.1455 60.1293 13.3884 62.5044C16.5958 61.9055 19.7544 60.6956 19.7544 60.6956L9.21582 50.157C9.49857 51.8089 9.87769 53.4272 10.3468 55.0072Z" fill="url(#paint29_linear)"/>
<path d="M17.9397 61.3223C19.037 60.9702 19.7544 60.6955 19.7544 60.6955L15.748 56.6892C16.3749 58.2901 17.1078 59.8373 17.9397 61.3223Z" fill="url(#paint30_linear)"/>
<path d="M66.9698 40.7838L54.856 38.5668C53.8088 38.3752 52.9937 39.4636 53.4726 40.4144L55.8383 45.1128C54.2149 45.9028 52.5681 46.6852 50.9007 47.4562C39.5451 52.7049 28.3535 56.9379 19.3865 59.381C16.7155 60.1073 14.4749 60.6106 12.6101 60.9453C9.28794 61.5464 7.14969 61.6238 5.88144 61.5123C5.18919 61.451 4.81345 60.6629 5.21432 60.0959C5.97707 59.0097 7.51625 57.3361 10.3559 55.0432C9.88006 53.4515 9.49756 51.8189 9.21294 50.1543C6.47825 52.2264 4.33776 54.1231 2.8282 55.8127C1.87176 56.8807 -1.03148 60.1323 0.380391 63.1882C1.61001 65.8523 5.08232 66.112 6.90182 66.112C7.16825 66.112 7.40038 66.1073 7.58263 66.1028C9.58869 66.055 12.0365 65.734 14.8942 65.1464C16.2057 64.8775 17.6037 64.552 19.084 64.1718C28.5453 61.7377 40.5222 57.2699 52.8113 51.5889C54.5273 50.7956 56.2198 49.9916 57.8865 49.1802L60.1536 53.6829C60.6325 54.6337 61.992 54.6273 62.4617 53.6718L67.8947 42.62C68.2716 41.8529 67.8107 40.9376 66.9698 40.7838Z" fill="url(#paint31_linear)"/>
<path d="M5.52387 61.4061L5.52556 61.4054C5.07519 61.1599 4.88994 60.5556 5.21468 60.0962C5.97743 59.0101 7.51662 57.3364 10.3563 55.0435C10.0197 53.9178 9.7323 52.7703 9.49061 51.6064C7.59331 53.2596 3.44919 56.9862 3.14263 58.2563C2.744 59.9071 5.52387 61.4061 5.52387 61.4061Z" fill="url(#paint32_linear)"/>
<defs>
<linearGradient id="paint0_linear" x1="50.733" y1="103.694" x2="50.733" y2="-3.1141" gradientUnits="userSpaceOnUse">
<stop stop-color="white"/>
<stop offset="1" stop-color="#E8EFEE"/>
</linearGradient>
<linearGradient id="paint1_linear" x1="50.7331" y1="6.33208" x2="50.7331" y2="83.7255" gradientUnits="userSpaceOnUse">
<stop stop-color="white"/>
<stop offset="1" stop-color="#E8EFEE"/>
</linearGradient>
<radialGradient id="paint2_radial" cx="0" cy="0" r="1" gradientUnits="userSpaceOnUse" gradientTransform="translate(47.1835 37.74) scale(48.9574)">
<stop offset="0.0001" stop-color="white" stop-opacity="0"/>
<stop offset="0.482" stop-color="#FDFDFD" stop-opacity="0.482"/>
<stop offset="0.656" stop-color="#F6F7F7" stop-opacity="0.655"/>
<stop offset="0.779" stop-color="#EBEDEC" stop-opacity="0.779"/>
<stop offset="0.879" stop-color="#DADDDD" stop-opacity="0.879"/>
<stop offset="0.964" stop-color="#C4CAC9" stop-opacity="0.964"/>
<stop offset="1" stop-color="#B8BFBE"/>
</radialGradient>
<radialGradient id="paint3_radial" cx="0" cy="0" r="1" gradientUnits="userSpaceOnUse" gradientTransform="translate(36.0528 24.7678) scale(53.8416)">
<stop stop-color="#00A6F9"/>
<stop offset="0.253" stop-color="#00A0F7"/>
<stop offset="0.575" stop-color="#0091F0"/>
<stop offset="0.932" stop-color="#0077E4"/>
<stop offset="1" stop-color="#0071E2"/>
</radialGradient>
<radialGradient id="paint4_radial" cx="0" cy="0" r="1" gradientUnits="userSpaceOnUse" gradientTransform="translate(36.0524 24.7678) scale(53.8416)">
<stop stop-color="#00A6F9"/>
<stop offset="0.253" stop-color="#00A0F7"/>
<stop offset="0.575" stop-color="#0091F0"/>
<stop offset="0.932" stop-color="#0077E4"/>
<stop offset="1" stop-color="#0071E2"/>
</radialGradient>
<radialGradient id="paint5_radial" cx="0" cy="0" r="1" gradientUnits="userSpaceOnUse" gradientTransform="translate(36.0533 24.7678) scale(53.8416)">
<stop stop-color="#00A6F9"/>
<stop offset="0.253" stop-color="#00A0F7"/>
<stop offset="0.575" stop-color="#0091F0"/>
<stop offset="0.932" stop-color="#0077E4"/>
<stop offset="1" stop-color="#0071E2"/>
</radialGradient>
<radialGradient id="paint6_radial" cx="0" cy="0" r="1" gradientUnits="userSpaceOnUse" gradientTransform="translate(36.0529 24.7677) scale(53.8416)">
<stop stop-color="#00A6F9"/>
<stop offset="0.253" stop-color="#00A0F7"/>
<stop offset="0.575" stop-color="#0091F0"/>
<stop offset="0.932" stop-color="#0077E4"/>
<stop offset="1" stop-color="#0071E2"/>
</radialGradient>
<radialGradient id="paint7_radial" cx="0" cy="0" r="1" gradientUnits="userSpaceOnUse" gradientTransform="translate(36.0532 24.7678) scale(53.8415)">
<stop stop-color="#00A6F9"/>
<stop offset="0.253" stop-color="#00A0F7"/>
<stop offset="0.575" stop-color="#0091F0"/>
<stop offset="0.932" stop-color="#0077E4"/>
<stop offset="1" stop-color="#0071E2"/>
</radialGradient>
<radialGradient id="paint8_radial" cx="0" cy="0" r="1" gradientUnits="userSpaceOnUse" gradientTransform="translate(36.0532 24.7677) scale(53.8415)">
<stop stop-color="#00A6F9"/>
<stop offset="0.253" stop-color="#00A0F7"/>
<stop offset="0.575" stop-color="#0091F0"/>
<stop offset="0.932" stop-color="#0077E4"/>
<stop offset="1" stop-color="#0071E2"/>
</radialGradient>
<radialGradient id="paint9_radial" cx="0" cy="0" r="1" gradientUnits="userSpaceOnUse" gradientTransform="translate(36.0526 24.7678) scale(53.8416)">
<stop stop-color="#00A6F9"/>
<stop offset="0.253" stop-color="#00A0F7"/>
<stop offset="0.575" stop-color="#0091F0"/>
<stop offset="0.932" stop-color="#0077E4"/>
<stop offset="1" stop-color="#0071E2"/>
</radialGradient>
<radialGradient id="paint10_radial" cx="0" cy="0" r="1" gradientUnits="userSpaceOnUse" gradientTransform="translate(36.0527 24.7677) scale(53.8416)">
<stop stop-color="#00A6F9"/>
<stop offset="0.253" stop-color="#00A0F7"/>
<stop offset="0.575" stop-color="#0091F0"/>
<stop offset="0.932" stop-color="#0077E4"/>
<stop offset="1" stop-color="#0071E2"/>
</radialGradient>
<radialGradient id="paint11_radial" cx="0" cy="0" r="1" gradientUnits="userSpaceOnUse" gradientTransform="translate(36.0532 24.7677) scale(53.8416)">
<stop stop-color="#00A6F9"/>
<stop offset="0.253" stop-color="#00A0F7"/>
<stop offset="0.575" stop-color="#0091F0"/>
<stop offset="0.932" stop-color="#0077E4"/>
<stop offset="1" stop-color="#0071E2"/>
</radialGradient>
<radialGradient id="paint12_radial" cx="0" cy="0" r="1" gradientUnits="userSpaceOnUse" gradientTransform="translate(36.053 24.7678) scale(53.8416)">
<stop stop-color="#00A6F9"/>
<stop offset="0.253" stop-color="#00A0F7"/>
<stop offset="0.575" stop-color="#0091F0"/>
<stop offset="0.932" stop-color="#0077E4"/>
<stop offset="1" stop-color="#0071E2"/>
</radialGradient>
<radialGradient id="paint13_radial" cx="0" cy="0" r="1" gradientUnits="userSpaceOnUse" gradientTransform="translate(36.0528 24.7677) scale(53.8416)">
<stop stop-color="#00A6F9"/>
<stop offset="0.253" stop-color="#00A0F7"/>
<stop offset="0.575" stop-color="#0091F0"/>
<stop offset="0.932" stop-color="#0077E4"/>
<stop offset="1" stop-color="#0071E2"/>
</radialGradient>
<radialGradient id="paint14_radial" cx="0" cy="0" r="1" gradientUnits="userSpaceOnUse" gradientTransform="translate(36.0524 24.7677) scale(53.8416)">
<stop stop-color="#00A6F9"/>
<stop offset="0.253" stop-color="#00A0F7"/>
<stop offset="0.575" stop-color="#0091F0"/>
<stop offset="0.932" stop-color="#0077E4"/>
<stop offset="1" stop-color="#0071E2"/>
</radialGradient>
<linearGradient id="paint15_linear" x1="37.3499" y1="31.7327" x2="14.0252" y2="8.40802" gradientUnits="userSpaceOnUse">
<stop offset="0.0001" stop-color="#008BF2" stop-opacity="0"/>
<stop offset="1" stop-color="#0046E2"/>
</linearGradient>
<linearGradient id="paint16_linear" x1="33.0351" y1="57.2201" x2="12.3651" y2="36.5495" gradientUnits="userSpaceOnUse">
<stop offset="0.0001" stop-color="#008BF2" stop-opacity="0"/>
<stop offset="1" stop-color="#0046E2"/>
</linearGradient>
<linearGradient id="paint17_linear" x1="71.5312" y1="21.6941" x2="57.4128" y2="7.57645" gradientUnits="userSpaceOnUse">
<stop offset="0.0001" stop-color="#008BF2" stop-opacity="0"/>
<stop offset="1" stop-color="#0046E2"/>
</linearGradient>
<linearGradient id="paint18_linear" x1="92.0429" y1="46.2081" x2="73.3523" y2="27.5176" gradientUnits="userSpaceOnUse">
<stop stop-color="#C2CECE" stop-opacity="0"/>
<stop offset="0.179" stop-color="#AFBCBC" stop-opacity="0.179"/>
<stop offset="1" stop-color="#5B6A6A"/>
</linearGradient>
<linearGradient id="paint19_linear" x1="94.112" y1="57.7609" x2="75.8554" y2="39.5064" gradientUnits="userSpaceOnUse">
<stop offset="0.0001" stop-color="#008BF2" stop-opacity="0"/>
<stop offset="1" stop-color="#0046E2"/>
</linearGradient>
<linearGradient id="paint20_linear" x1="93.6286" y1="50.2566" x2="77.4081" y2="34.0361" gradientUnits="userSpaceOnUse">
<stop offset="0.0001" stop-color="#008BF2" stop-opacity="0"/>
<stop offset="1" stop-color="#0046E2"/>
</linearGradient>
<linearGradient id="paint21_linear" x1="83.0349" y1="20.2776" x2="83.0349" y2="36.3961" gradientUnits="userSpaceOnUse">
<stop stop-color="#FFCF95"/>
<stop offset="0.427" stop-color="#FFC954"/>
<stop offset="1" stop-color="#FFC200"/>
</linearGradient>
<linearGradient id="paint22_linear" x1="64.6991" y1="76.5434" x2="38.8363" y2="50.6806" gradientUnits="userSpaceOnUse">
<stop stop-color="#C2CECE" stop-opacity="0"/>
<stop offset="0.179" stop-color="#AFBCBC" stop-opacity="0.179"/>
<stop offset="1" stop-color="#5B6A6A"/>
</linearGradient>
<linearGradient id="paint23_linear" x1="76.0419" y1="77.4653" x2="45.089" y2="46.5124" gradientUnits="userSpaceOnUse">
<stop offset="0.0001" stop-color="#008BF2" stop-opacity="0"/>
<stop offset="1" stop-color="#0046E2"/>
</linearGradient>
<linearGradient id="paint24_linear" x1="68.1173" y1="85.388" x2="37.1644" y2="54.4351" gradientUnits="userSpaceOnUse">
<stop offset="0.0001" stop-color="#008BF2" stop-opacity="0"/>
<stop offset="1" stop-color="#0046E2"/>
</linearGradient>
<linearGradient id="paint25_linear" x1="73.6115" y1="79.8954" x2="42.6586" y2="48.9425" gradientUnits="userSpaceOnUse">
<stop offset="0.0001" stop-color="#008BF2" stop-opacity="0"/>
<stop offset="1" stop-color="#0046E2"/>
</linearGradient>
<linearGradient id="paint26_linear" x1="84.6981" y1="68.8092" x2="53.7452" y2="37.8563" gradientUnits="userSpaceOnUse">
<stop offset="0.0001" stop-color="#008BF2" stop-opacity="0"/>
<stop offset="1" stop-color="#0046E2"/>
</linearGradient>
<linearGradient id="paint27_linear" x1="57.6335" y1="95.8738" x2="26.6805" y2="64.9209" gradientUnits="userSpaceOnUse">
<stop offset="0.0001" stop-color="#008BF2" stop-opacity="0"/>
<stop offset="1" stop-color="#0046E2"/>
</linearGradient>
<linearGradient id="paint28_linear" x1="59.8231" y1="93.6821" x2="28.8702" y2="62.7293" gradientUnits="userSpaceOnUse">
<stop offset="0.0001" stop-color="#008BF2" stop-opacity="0"/>
<stop offset="1" stop-color="#0046E2"/>
</linearGradient>
<linearGradient id="paint29_linear" x1="22.8726" y1="67.8992" x2="0.313332" y2="45.3405" gradientUnits="userSpaceOnUse">
<stop stop-color="#C2CECE" stop-opacity="0"/>
<stop offset="0.179" stop-color="#AFBCBC" stop-opacity="0.179"/>
<stop offset="1" stop-color="#5B6A6A"/>
</linearGradient>
<linearGradient id="paint30_linear" x1="21.1067" y1="63.2668" x2="12.5304" y2="54.6906" gradientUnits="userSpaceOnUse">
<stop offset="0.0001" stop-color="#008BF2" stop-opacity="0"/>
<stop offset="1" stop-color="#0046E2"/>
</linearGradient>
<linearGradient id="paint31_linear" x1="29.6491" y1="41.9679" x2="37.9994" y2="61.2485" gradientUnits="userSpaceOnUse">
<stop stop-color="#FFCF95"/>
<stop offset="0.427" stop-color="#FFC954"/>
<stop offset="1" stop-color="#FFC200"/>
</linearGradient>
<linearGradient id="paint32_linear" x1="5.67959" y1="54.9187" x2="8.41227" y2="57.5388" gradientUnits="userSpaceOnUse">
<stop stop-color="#FFC200" stop-opacity="0"/>
<stop offset="0.203" stop-color="#FFBB00" stop-opacity="0.203"/>
<stop offset="0.499" stop-color="#FFA700" stop-opacity="0.499"/>
<stop offset="0.852" stop-color="#FF8800" stop-opacity="0.852"/>
<stop offset="1" stop-color="#FF7800"/>
</linearGradient>
</defs>
</svg>
