
<svg width="47" height="28" viewBox="0 0 47 28" fill="none" xmlns="http://www.w3.org/2000/svg">
<path d="M2.61133 12.2338C1.63586 12.2338 0.845094 13.0245 0.845094 14C0.845094 14.9755 1.63586 15.7662 2.61133 15.7662L2.61133 12.2338ZM46.2499 15.2489C46.9396 14.5592 46.9396 13.4408 46.2499 12.7511L35.0096 1.51084C34.3199 0.821078 33.2015 0.821079 32.5118 1.51084C31.822 2.20059 31.822 3.31891 32.5118 4.00867L42.5031 14L32.5118 23.9913C31.822 24.6811 31.822 25.7994 32.5118 26.4892C33.2015 27.1789 34.3199 27.1789 35.0096 26.4892L46.2499 15.2489ZM2.61133 15.7662L45.0009 15.7662L45.0009 12.2338L2.61133 12.2338L2.61133 15.7662Z" fill="#7F89A7"/>
</svg>
