
<svg width="47" height="28" viewBox="0 0 47 28" fill="none" xmlns="http://www.w3.org/2000/svg">
<path d="M44.3887 15.7662C45.3641 15.7662 46.1549 14.9755 46.1549 14C46.1549 13.0245 45.3641 12.2338 44.3887 12.2338L44.3887 15.7662ZM0.750145 12.7511C0.0603867 13.4408 0.0603866 14.5592 0.750145 15.2489L11.9904 26.4892C12.6801 27.1789 13.7985 27.1789 14.4882 26.4892C15.178 25.7994 15.178 24.6811 14.4882 23.9913L4.49689 14L14.4882 4.00867C15.178 3.31891 15.178 2.2006 14.4882 1.51084C13.7985 0.821082 12.6801 0.821082 11.9904 1.51084L0.750145 12.7511ZM44.3887 12.2338L1.99906 12.2338L1.99906 15.7662L44.3887 15.7662L44.3887 12.2338Z" fill="#7F89A7"/>
</svg>
