
<svg width="532" height="426" viewBox="0 0 532 426" fill="none" xmlns="http://www.w3.org/2000/svg">
<g opacity="0.7">
<circle cx="7.5" cy="110.708" r="8.5" transform="rotate(-90 7.5 110.708)" fill="#E7E8F0"/>
<circle cx="50.5" cy="110.708" r="8.5" transform="rotate(-90 50.5 110.708)" fill="#E7E8F0"/>
<circle cx="93.5" cy="110.708" r="8.5" transform="rotate(-90 93.5 110.708)" fill="#E7E8F0"/>
<circle cx="136.5" cy="110.708" r="8.5" transform="rotate(-90 136.5 110.708)" fill="#E7E8F0"/>
<circle cx="179.5" cy="110.708" r="8.5" transform="rotate(-90 179.5 110.708)" fill="#E7E8F0"/>
<circle cx="222.5" cy="110.708" r="8.5" transform="rotate(-90 222.5 110.708)" fill="#E7E8F0"/>
<circle cx="265.5" cy="110.708" r="8.5" transform="rotate(-90 265.5 110.708)" fill="#E7E8F0"/>
<circle cx="308.5" cy="110.708" r="8.5" transform="rotate(-90 308.5 110.708)" fill="#E7E8F0"/>
<circle cx="7.5" cy="263.708" r="8.5" transform="rotate(-90 7.5 263.708)" fill="#E7E8F0"/>
<circle cx="50.5" cy="263.708" r="8.5" transform="rotate(-90 50.5 263.708)" fill="#E7E8F0"/>
<circle cx="93.5" cy="263.708" r="8.5" transform="rotate(-90 93.5 263.708)" fill="#E7E8F0"/>
<circle cx="136.5" cy="263.708" r="8.5" transform="rotate(-90 136.5 263.708)" fill="#E7E8F0"/>
<circle cx="179.5" cy="263.708" r="8.5" transform="rotate(-90 179.5 263.708)" fill="#E7E8F0"/>
<circle cx="222.5" cy="263.708" r="8.5" transform="rotate(-90 222.5 263.708)" fill="#E7E8F0"/>
<circle cx="265.5" cy="263.708" r="8.5" transform="rotate(-90 265.5 263.708)" fill="#E7E8F0"/>
<circle cx="308.5" cy="263.708" r="8.5" transform="rotate(-90 308.5 263.708)" fill="#E7E8F0"/>
<circle cx="7.5" cy="161.708" r="8.5" transform="rotate(-90 7.5 161.708)" fill="#E7E8F0"/>
<circle cx="50.5" cy="161.708" r="8.5" transform="rotate(-90 50.5 161.708)" fill="#E7E8F0"/>
<circle cx="93.5" cy="161.708" r="8.5" transform="rotate(-90 93.5 161.708)" fill="#E7E8F0"/>
<circle cx="136.5" cy="161.708" r="8.5" transform="rotate(-90 136.5 161.708)" fill="#E7E8F0"/>
<circle cx="179.5" cy="161.708" r="8.5" transform="rotate(-90 179.5 161.708)" fill="#E7E8F0"/>
<circle cx="222.5" cy="161.708" r="8.5" transform="rotate(-90 222.5 161.708)" fill="#E7E8F0"/>
<circle cx="265.5" cy="161.708" r="8.5" transform="rotate(-90 265.5 161.708)" fill="#E7E8F0"/>
<circle cx="308.5" cy="161.708" r="8.5" transform="rotate(-90 308.5 161.708)" fill="#E7E8F0"/>
<circle cx="7.5" cy="314.708" r="8.5" transform="rotate(-90 7.5 314.708)" fill="#E7E8F0"/>
<circle cx="50.5" cy="314.708" r="8.5" transform="rotate(-90 50.5 314.708)" fill="#E7E8F0"/>
<circle cx="93.5" cy="314.708" r="8.5" transform="rotate(-90 93.5 314.708)" fill="#E7E8F0"/>
<circle cx="136.5" cy="314.708" r="8.5" transform="rotate(-90 136.5 314.708)" fill="#E7E8F0"/>
<circle cx="179.5" cy="314.708" r="8.5" transform="rotate(-90 179.5 314.708)" fill="#E7E8F0"/>
<circle cx="222.5" cy="314.708" r="8.5" transform="rotate(-90 222.5 314.708)" fill="#E7E8F0"/>
<circle cx="265.5" cy="314.708" r="8.5" transform="rotate(-90 265.5 314.708)" fill="#E7E8F0"/>
<circle cx="308.5" cy="314.708" r="8.5" transform="rotate(-90 308.5 314.708)" fill="#E7E8F0"/>
<circle cx="7.5" cy="212.708" r="8.5" transform="rotate(-90 7.5 212.708)" fill="#E7E8F0"/>
<circle cx="50.5" cy="212.708" r="8.5" transform="rotate(-90 50.5 212.708)" fill="#E7E8F0"/>
<circle cx="93.5" cy="212.708" r="8.5" transform="rotate(-90 93.5 212.708)" fill="#E7E8F0"/>
<circle cx="136.5" cy="212.708" r="8.5" transform="rotate(-90 136.5 212.708)" fill="#E7E8F0"/>
<circle cx="179.5" cy="212.708" r="8.5" transform="rotate(-90 179.5 212.708)" fill="#E7E8F0"/>
<circle cx="222.5" cy="212.708" r="8.5" transform="rotate(-90 222.5 212.708)" fill="#E7E8F0"/>
<circle cx="265.5" cy="212.708" r="8.5" transform="rotate(-90 265.5 212.708)" fill="#E7E8F0"/>
<circle cx="308.5" cy="212.708" r="8.5" transform="rotate(-90 308.5 212.708)" fill="#E7E8F0"/>
<circle cx="7.5" cy="365.708" r="8.5" transform="rotate(-90 7.5 365.708)" fill="#E7E8F0"/>
<circle cx="50.5" cy="365.708" r="8.5" transform="rotate(-90 50.5 365.708)" fill="#E7E8F0"/>
<circle cx="93.5" cy="365.708" r="8.5" transform="rotate(-90 93.5 365.708)" fill="#E7E8F0"/>
<circle cx="136.5" cy="365.708" r="8.5" transform="rotate(-90 136.5 365.708)" fill="#E7E8F0"/>
<circle cx="179.5" cy="365.708" r="8.5" transform="rotate(-90 179.5 365.708)" fill="#E7E8F0"/>
<circle cx="222.5" cy="365.708" r="8.5" transform="rotate(-90 222.5 365.708)" fill="#E7E8F0"/>
<circle cx="265.5" cy="365.708" r="8.5" transform="rotate(-90 265.5 365.708)" fill="#E7E8F0"/>
<circle cx="308.5" cy="365.708" r="8.5" transform="rotate(-90 308.5 365.708)" fill="#E7E8F0"/>
<circle cx="7.5" cy="416.708" r="8.5" transform="rotate(-90 7.5 416.708)" fill="#E7E8F0"/>
<circle cx="50.5" cy="416.708" r="8.5" transform="rotate(-90 50.5 416.708)" fill="#E7E8F0"/>
<circle cx="93.5" cy="416.708" r="8.5" transform="rotate(-90 93.5 416.708)" fill="#E7E8F0"/>
<circle cx="136.5" cy="416.708" r="8.5" transform="rotate(-90 136.5 416.708)" fill="#E7E8F0"/>
<circle cx="179.5" cy="416.708" r="8.5" transform="rotate(-90 179.5 416.708)" fill="#E7E8F0"/>
<circle cx="222.5" cy="416.708" r="8.5" transform="rotate(-90 222.5 416.708)" fill="#E7E8F0"/>
<circle cx="265.5" cy="416.708" r="8.5" transform="rotate(-90 265.5 416.708)" fill="#E7E8F0"/>
<circle cx="308.5" cy="416.708" r="8.5" transform="rotate(-90 308.5 416.708)" fill="#E7E8F0"/>
<circle cx="222.5" cy="8.70752" r="8.5" transform="rotate(-90 222.5 8.70752)" fill="#E7E8F0"/>
<circle cx="265.5" cy="8.70752" r="8.5" transform="rotate(-90 265.5 8.70752)" fill="#E7E8F0"/>
<circle cx="308.5" cy="8.70752" r="8.5" transform="rotate(-90 308.5 8.70752)" fill="#E7E8F0"/>
<circle cx="351.5" cy="8.70752" r="8.5" transform="rotate(-90 351.5 8.70752)" fill="#E7E8F0"/>
<circle cx="394.5" cy="8.70752" r="8.5" transform="rotate(-90 394.5 8.70752)" fill="#E7E8F0"/>
<circle cx="437.5" cy="8.70752" r="8.5" transform="rotate(-90 437.5 8.70752)" fill="#E7E8F0"/>
<circle cx="480.5" cy="8.70752" r="8.5" transform="rotate(-90 480.5 8.70752)" fill="#E7E8F0"/>
<circle cx="523.5" cy="8.70752" r="8.5" transform="rotate(-90 523.5 8.70752)" fill="#E7E8F0"/>
<circle cx="222.5" cy="161.708" r="8.5" transform="rotate(-90 222.5 161.708)" fill="#E7E8F0"/>
<circle cx="265.5" cy="161.708" r="8.5" transform="rotate(-90 265.5 161.708)" fill="#E7E8F0"/>
<circle cx="308.5" cy="161.708" r="8.5" transform="rotate(-90 308.5 161.708)" fill="#E7E8F0"/>
<circle cx="351.5" cy="161.708" r="8.5" transform="rotate(-90 351.5 161.708)" fill="#E7E8F0"/>
<circle cx="394.5" cy="161.708" r="8.5" transform="rotate(-90 394.5 161.708)" fill="#E7E8F0"/>
<circle cx="437.5" cy="161.708" r="8.5" transform="rotate(-90 437.5 161.708)" fill="#E7E8F0"/>
<circle cx="480.5" cy="161.708" r="8.5" transform="rotate(-90 480.5 161.708)" fill="#E7E8F0"/>
<circle cx="523.5" cy="161.708" r="8.5" transform="rotate(-90 523.5 161.708)" fill="#E7E8F0"/>
<circle cx="222.5" cy="59.7075" r="8.5" transform="rotate(-90 222.5 59.7075)" fill="#E7E8F0"/>
<circle cx="265.5" cy="59.7075" r="8.5" transform="rotate(-90 265.5 59.7075)" fill="#E7E8F0"/>
<circle cx="308.5" cy="59.7075" r="8.5" transform="rotate(-90 308.5 59.7075)" fill="#E7E8F0"/>
<circle cx="351.5" cy="59.7075" r="8.5" transform="rotate(-90 351.5 59.7075)" fill="#E7E8F0"/>
<circle cx="394.5" cy="59.7075" r="8.5" transform="rotate(-90 394.5 59.7075)" fill="#E7E8F0"/>
<circle cx="437.5" cy="59.7075" r="8.5" transform="rotate(-90 437.5 59.7075)" fill="#E7E8F0"/>
<circle cx="480.5" cy="59.7075" r="8.5" transform="rotate(-90 480.5 59.7075)" fill="#E7E8F0"/>
<circle cx="523.5" cy="59.7075" r="8.5" transform="rotate(-90 523.5 59.7075)" fill="#E7E8F0"/>
<circle cx="222.5" cy="212.708" r="8.5" transform="rotate(-90 222.5 212.708)" fill="#E7E8F0"/>
<circle cx="265.5" cy="212.708" r="8.5" transform="rotate(-90 265.5 212.708)" fill="#E7E8F0"/>
<circle cx="308.5" cy="212.708" r="8.5" transform="rotate(-90 308.5 212.708)" fill="#E7E8F0"/>
<circle cx="351.5" cy="212.708" r="8.5" transform="rotate(-90 351.5 212.708)" fill="#E7E8F0"/>
<circle cx="394.5" cy="212.708" r="8.5" transform="rotate(-90 394.5 212.708)" fill="#E7E8F0"/>
<circle cx="437.5" cy="212.708" r="8.5" transform="rotate(-90 437.5 212.708)" fill="#E7E8F0"/>
<circle cx="480.5" cy="212.708" r="8.5" transform="rotate(-90 480.5 212.708)" fill="#E7E8F0"/>
<circle cx="523.5" cy="212.708" r="8.5" transform="rotate(-90 523.5 212.708)" fill="#E7E8F0"/>
<circle cx="222.5" cy="110.708" r="8.5" transform="rotate(-90 222.5 110.708)" fill="#E7E8F0"/>
<circle cx="265.5" cy="110.708" r="8.5" transform="rotate(-90 265.5 110.708)" fill="#E7E8F0"/>
<circle cx="308.5" cy="110.708" r="8.5" transform="rotate(-90 308.5 110.708)" fill="#E7E8F0"/>
<circle cx="351.5" cy="110.708" r="8.5" transform="rotate(-90 351.5 110.708)" fill="#E7E8F0"/>
<circle cx="394.5" cy="110.708" r="8.5" transform="rotate(-90 394.5 110.708)" fill="#E7E8F0"/>
<circle cx="437.5" cy="110.708" r="8.5" transform="rotate(-90 437.5 110.708)" fill="#E7E8F0"/>
<circle cx="480.5" cy="110.708" r="8.5" transform="rotate(-90 480.5 110.708)" fill="#E7E8F0"/>
<circle cx="523.5" cy="110.708" r="8.5" transform="rotate(-90 523.5 110.708)" fill="#E7E8F0"/>
<circle cx="222.5" cy="263.708" r="8.5" transform="rotate(-90 222.5 263.708)" fill="#E7E8F0"/>
<circle cx="265.5" cy="263.708" r="8.5" transform="rotate(-90 265.5 263.708)" fill="#E7E8F0"/>
<circle cx="308.5" cy="263.708" r="8.5" transform="rotate(-90 308.5 263.708)" fill="#E7E8F0"/>
<circle cx="351.5" cy="263.708" r="8.5" transform="rotate(-90 351.5 263.708)" fill="#E7E8F0"/>
<circle cx="394.5" cy="263.708" r="8.5" transform="rotate(-90 394.5 263.708)" fill="#E7E8F0"/>
<circle cx="437.5" cy="263.708" r="8.5" transform="rotate(-90 437.5 263.708)" fill="#E7E8F0"/>
<circle cx="480.5" cy="263.708" r="8.5" transform="rotate(-90 480.5 263.708)" fill="#E7E8F0"/>
<circle cx="523.5" cy="263.708" r="8.5" transform="rotate(-90 523.5 263.708)" fill="#E7E8F0"/>
<circle cx="222.5" cy="314.708" r="8.5" transform="rotate(-90 222.5 314.708)" fill="#E7E8F0"/>
<circle cx="265.5" cy="314.708" r="8.5" transform="rotate(-90 265.5 314.708)" fill="#E7E8F0"/>
<circle cx="308.5" cy="314.708" r="8.5" transform="rotate(-90 308.5 314.708)" fill="#E7E8F0"/>
<circle cx="351.5" cy="314.708" r="8.5" transform="rotate(-90 351.5 314.708)" fill="#E7E8F0"/>
<circle cx="394.5" cy="314.708" r="8.5" transform="rotate(-90 394.5 314.708)" fill="#E7E8F0"/>
<circle cx="437.5" cy="314.708" r="8.5" transform="rotate(-90 437.5 314.708)" fill="#E7E8F0"/>
<circle cx="480.5" cy="314.708" r="8.5" transform="rotate(-90 480.5 314.708)" fill="#E7E8F0"/>
<circle cx="523.5" cy="314.708" r="8.5" transform="rotate(-90 523.5 314.708)" fill="#E7E8F0"/>
</g>
</svg>
