
<svg width="386" height="533" viewBox="0 0 386 533" fill="none" xmlns="http://www.w3.org/2000/svg">
<g opacity="0.3">
<g opacity="0.5">
<circle cx="314.5" cy="8.5" r="8.5" fill="#7F89A7"/>
<circle cx="314.5" cy="51.5" r="8.5" fill="#7F89A7"/>
<circle cx="314.5" cy="94.5" r="8.5" fill="#7F89A7"/>
<circle cx="314.5" cy="137.5" r="8.5" fill="#7F89A7"/>
<circle cx="314.5" cy="180.5" r="8.5" fill="#7F89A7"/>
<circle cx="314.5" cy="223.5" r="8.5" fill="#7F89A7"/>
<circle cx="314.5" cy="266.5" r="8.5" fill="#7F89A7"/>
<circle cx="314.5" cy="309.5" r="8.5" fill="#7F89A7"/>
<circle cx="161.5" cy="8.5" r="8.5" fill="#7F89A7"/>
<circle cx="161.5" cy="51.5" r="8.5" fill="#7F89A7"/>
<circle cx="161.5" cy="94.5" r="8.5" fill="#7F89A7"/>
<circle cx="161.5" cy="137.5" r="8.5" fill="#7F89A7"/>
<circle cx="161.5" cy="180.5" r="8.5" fill="#7F89A7"/>
<circle cx="161.5" cy="223.5" r="8.5" fill="#7F89A7"/>
<circle cx="161.5" cy="266.5" r="8.5" fill="#7F89A7"/>
<circle cx="161.5" cy="309.5" r="8.5" fill="#7F89A7"/>
<circle cx="263.5" cy="8.5" r="8.5" fill="#7F89A7"/>
<circle cx="263.5" cy="51.5" r="8.5" fill="#7F89A7"/>
<circle cx="263.5" cy="94.5" r="8.5" fill="#7F89A7"/>
<circle cx="263.5" cy="137.5" r="8.5" fill="#7F89A7"/>
<circle cx="263.5" cy="180.5" r="8.5" fill="#7F89A7"/>
<circle cx="263.5" cy="223.5" r="8.5" fill="#7F89A7"/>
<circle cx="263.5" cy="266.5" r="8.5" fill="#7F89A7"/>
<circle cx="263.5" cy="309.5" r="8.5" fill="#7F89A7"/>
<circle cx="110.5" cy="8.5" r="8.5" fill="#7F89A7"/>
<circle cx="110.5" cy="51.5" r="8.5" fill="#7F89A7"/>
<circle cx="110.5" cy="94.5" r="8.5" fill="#7F89A7"/>
<circle cx="110.5" cy="137.5" r="8.5" fill="#7F89A7"/>
<circle cx="110.5" cy="180.5" r="8.5" fill="#7F89A7"/>
<circle cx="110.5" cy="223.5" r="8.5" fill="#7F89A7"/>
<circle cx="110.5" cy="266.5" r="8.5" fill="#7F89A7"/>
<circle cx="110.5" cy="309.5" r="8.5" fill="#7F89A7"/>
<circle cx="212.5" cy="8.5" r="8.5" fill="#7F89A7"/>
<circle cx="212.5" cy="51.5" r="8.5" fill="#7F89A7"/>
<circle cx="212.5" cy="94.5" r="8.5" fill="#7F89A7"/>
<circle cx="212.5" cy="137.5" r="8.5" fill="#7F89A7"/>
<circle cx="212.5" cy="180.5" r="8.5" fill="#7F89A7"/>
<circle cx="212.5" cy="223.5" r="8.5" fill="#7F89A7"/>
<circle cx="212.5" cy="266.5" r="8.5" fill="#7F89A7"/>
<circle cx="212.5" cy="309.5" r="8.5" fill="#7F89A7"/>
<circle cx="59.5" cy="8.5" r="8.5" fill="#7F89A7"/>
<circle cx="59.5" cy="51.5" r="8.5" fill="#7F89A7"/>
<circle cx="59.5" cy="94.5" r="8.5" fill="#7F89A7"/>
<circle cx="59.5" cy="137.5" r="8.5" fill="#7F89A7"/>
<circle cx="59.5" cy="180.5" r="8.5" fill="#7F89A7"/>
<circle cx="59.5" cy="223.5" r="8.5" fill="#7F89A7"/>
<circle cx="59.5" cy="266.5" r="8.5" fill="#7F89A7"/>
<circle cx="59.5" cy="309.5" r="8.5" fill="#7F89A7"/>
<circle cx="8.5" cy="8.5" r="8.5" fill="#7F89A7"/>
<circle cx="8.5" cy="51.5" r="8.5" fill="#7F89A7"/>
<circle cx="8.5" cy="94.5" r="8.5" fill="#7F89A7"/>
<circle cx="8.5" cy="137.5" r="8.5" fill="#7F89A7"/>
<circle cx="8.5" cy="180.5" r="8.5" fill="#7F89A7"/>
<circle cx="8.5" cy="223.5" r="8.5" fill="#7F89A7"/>
<circle cx="8.5" cy="266.5" r="8.5" fill="#7F89A7"/>
<circle cx="8.5" cy="309.5" r="8.5" fill="#7F89A7"/>
</g>
<g opacity="0.5">
<circle cx="263.5" cy="352.5" r="8.5" fill="#7F89A7"/>
<circle cx="263.5" cy="395.5" r="8.5" fill="#7F89A7"/>
<circle cx="263.5" cy="438.5" r="8.5" fill="#7F89A7"/>
<circle cx="263.5" cy="481.5" r="8.5" fill="#7F89A7"/>
<circle cx="263.5" cy="524.5" r="8.5" fill="#7F89A7"/>
<circle cx="365.5" cy="223.5" r="8.5" fill="#7F89A7"/>
<circle cx="365.5" cy="266.5" r="8.5" fill="#7F89A7"/>
<circle cx="365.5" cy="309.5" r="8.5" fill="#7F89A7"/>
<circle cx="365.5" cy="352.5" r="8.5" fill="#7F89A7"/>
<circle cx="365.5" cy="395.5" r="8.5" fill="#7F89A7"/>
<circle cx="365.5" cy="438.5" r="8.5" fill="#7F89A7"/>
<circle cx="365.5" cy="481.5" r="8.5" fill="#7F89A7"/>
<circle cx="365.5" cy="524.5" r="8.5" fill="#7F89A7"/>
<circle cx="212.5" cy="352.5" r="8.5" fill="#7F89A7"/>
<circle cx="212.5" cy="395.5" r="8.5" fill="#7F89A7"/>
<circle cx="212.5" cy="438.5" r="8.5" fill="#7F89A7"/>
<circle cx="212.5" cy="481.5" r="8.5" fill="#7F89A7"/>
<circle cx="212.5" cy="524.5" r="8.5" fill="#7F89A7"/>
<circle cx="314.5" cy="352.5" r="8.5" fill="#7F89A7"/>
<circle cx="314.5" cy="395.5" r="8.5" fill="#7F89A7"/>
<circle cx="314.5" cy="438.5" r="8.5" fill="#7F89A7"/>
<circle cx="314.5" cy="481.5" r="8.5" fill="#7F89A7"/>
<circle cx="314.5" cy="524.5" r="8.5" fill="#7F89A7"/>
<circle cx="161.5" cy="352.5" r="8.5" fill="#7F89A7"/>
<circle cx="161.5" cy="395.5" r="8.5" fill="#7F89A7"/>
<circle cx="161.5" cy="438.5" r="8.5" fill="#7F89A7"/>
<circle cx="161.5" cy="481.5" r="8.5" fill="#7F89A7"/>
<circle cx="161.5" cy="524.5" r="8.5" fill="#7F89A7"/>
<circle cx="110.5" cy="352.5" r="8.5" fill="#7F89A7"/>
<circle cx="110.5" cy="395.5" r="8.5" fill="#7F89A7"/>
<circle cx="110.5" cy="438.5" r="8.5" fill="#7F89A7"/>
<circle cx="110.5" cy="481.5" r="8.5" fill="#7F89A7"/>
<circle cx="110.5" cy="524.5" r="8.5" fill="#7F89A7"/>
</g>
</g>
</svg>
