
<svg width="23" height="24" viewBox="0 0 23 24" fill="none" xmlns="http://www.w3.org/2000/svg">
<path d="M5.27027 23.3197C5.27027 23.0597 5.22027 22.9297 5.12027 22.9297L4.43027 23.2597C4.43027 23.1197 4.35027 23.0197 4.19027 22.9597L3.95027 22.9297C3.79027 22.9297 3.59027 22.9997 3.35027 23.1397C3.31027 23.0397 3.26027 22.9397 3.20027 22.8397C3.14027 22.7397 3.09027 22.6497 3.05027 22.5697C2.79027 22.0697 2.53027 21.5197 2.27027 20.9197C2.03027 20.2997 1.80027 19.7097 1.58027 19.1497C1.38027 18.5897 1.22027 18.1497 1.10027 17.8297C1.02027 17.5697 0.930273 17.1797 0.830273 16.6597C0.730273 16.1397 0.630273 15.4797 0.530273 14.6797C0.750273 14.8197 0.920273 14.8897 1.04027 14.8897C1.18027 14.8897 1.31027 14.6797 1.43027 14.2597C1.49027 14.3397 1.60027 14.3797 1.76027 14.3797C1.88027 14.3797 1.97027 14.3397 2.03027 14.2597L2.51027 13.5397L3.05027 13.7197H3.08027C3.12027 13.7197 3.16027 13.6997 3.20027 13.6597C3.24027 13.6197 3.30027 13.5797 3.38027 13.5397C3.54027 13.4397 3.66027 13.3897 3.74027 13.3897L3.83027 13.4197C4.33027 13.6597 4.65027 14.0997 4.79027 14.7397C5.15027 16.2597 5.51027 17.0197 5.87027 17.0197C6.23027 17.0197 6.65027 16.6397 7.13027 15.8797C7.37027 15.4997 7.61027 15.0597 7.85027 14.5597C8.11027 14.0597 8.37027 13.4997 8.63027 12.8797C8.67027 13.1197 8.71027 13.2397 8.75027 13.2397C8.85027 13.2397 9.02027 12.9897 9.26027 12.4897C9.52027 11.9897 9.93027 11.2997 10.4903 10.4197C10.8103 9.87973 11.2103 9.26973 11.6903 8.58973C12.1903 7.90973 12.7203 7.20973 13.2803 6.48973C13.8403 5.76973 14.3803 5.08973 14.9003 4.44973C15.4403 3.80973 15.9203 3.25973 16.3403 2.79973C16.7603 2.33973 17.0703 2.03973 17.2703 1.89973C18.0303 1.37973 18.6303 0.879726 19.0703 0.399726C19.0503 0.539725 19.0203 0.669726 18.9803 0.789726C18.9603 0.889726 18.9503 0.959726 18.9503 0.999725C18.9503 1.07973 18.9903 1.11973 19.0703 1.11973L19.9103 0.699726V0.819726C19.9103 0.979726 19.9503 1.05973 20.0303 1.05973C20.0903 1.05973 20.2103 0.969726 20.3903 0.789726C20.5703 0.609726 20.6703 0.479726 20.6903 0.399726L20.6303 0.819726L21.6503 0.219727L21.4103 0.759727C21.7303 0.539726 21.9603 0.429726 22.1003 0.429726C22.1803 0.429726 22.2403 0.479726 22.2803 0.579726C22.3203 0.659726 22.3403 0.739726 22.3403 0.819726C22.3403 0.939726 22.2903 1.07973 22.1903 1.23973C22.0903 1.39973 21.9603 1.58973 21.8003 1.80973C21.6803 1.96973 21.4803 2.20973 21.2003 2.52973C20.9403 2.82973 20.5403 3.27973 20.0003 3.87973C19.4603 4.45973 18.7403 5.26973 17.8403 6.30973C17.6003 6.56973 17.2303 7.02973 16.7303 7.68973C16.2303 8.32973 15.6603 9.07973 15.0203 9.93973C14.4003 10.7797 13.7803 11.6297 13.1603 12.4897C12.5403 13.3497 11.9903 14.1297 11.5103 14.8297C11.0303 15.5097 10.6903 16.0197 10.4903 16.3597L8.63027 19.5097C8.23027 20.1897 7.90027 20.7497 7.64027 21.1897C7.38027 21.6097 7.18027 21.8997 7.04027 22.0597C6.74027 22.4197 6.41027 22.7397 6.05027 23.0197L5.78027 22.8697L5.54027 23.0197L5.27027 23.3197Z" fill="#EB1A6B"/>
</svg>
