
<svg width="49" height="49" viewBox="0 0 49 49" fill="none" xmlns="http://www.w3.org/2000/svg">
<circle cx="24.3844" cy="24.3844" r="24.3844" fill="#E22D73"/>
<path fill-rule="evenodd" clip-rule="evenodd" d="M36.7157 20.1809C36.7253 20.4062 36.7317 20.6315 36.7317 20.86C36.7317 27.7906 31.4534 35.7839 21.8016 35.7839C18.8379 35.7839 16.0805 34.9162 13.7578 33.4284C14.1686 33.4764 14.5858 33.5003 15.0095 33.5003C17.468 33.5003 19.7299 32.663 21.5266 31.2551C19.2295 31.2136 17.2921 29.6971 16.624 27.6132C16.9453 27.674 17.273 27.7059 17.6118 27.7059C18.0898 27.7059 18.5534 27.642 18.9946 27.5222C16.5936 27.0411 14.7857 24.9206 14.7857 22.3797V22.3126C15.4922 22.7057 16.3027 22.9422 17.1627 22.9694C15.7544 22.0282 14.8272 20.4222 14.8272 18.6036C14.8272 17.6416 15.0862 16.7403 15.5386 15.9653C18.1266 19.139 21.9934 21.2276 26.3541 21.4465C26.2646 21.063 26.2182 20.6619 26.2182 20.2512C26.2182 17.354 28.5681 15.0049 31.4646 15.0049C32.9752 15.0049 34.3387 15.6425 35.2946 16.662C36.4903 16.4271 37.6141 15.9909 38.6275 15.39C38.2359 16.6141 37.4031 17.6416 36.3209 18.292C37.3823 18.1642 38.3926 17.8829 39.3341 17.4658C38.6307 18.5173 37.7404 19.441 36.7157 20.1809Z" fill="white"/>
</svg>
